# xmcd CD database file
#
# Track frame offsets:
#	187
#	20287
#	36937
#	61087
#	81900
#	100050
#	120375
#	138975
#	154762
#	183075
#
# Disc length: 2547 seconds
#
# Revision: 0
# Processed by: cddbd v1.5.1PL0 Copyright (c) Steve Scherf et al.
# Submitted via: CDex 1.51
#
DISCID=7109f10a
DTITLE=子安武人 - メリーさんの子猫
DYEAR=1999
DGENRE=J-pop
TTITLE0=Who's that I.D.
TTITLE1=メリーさんの子猫
TTITLE2=透明な窓
TTITLE3=Back to heaven
TTITLE4=天空の底
TTITLE5=mother
TTITLE6=パラダイス
TTITLE7=風の図鑑
TTITLE8=空に願いを込めて
TTITLE9=Tiny Little Song
EXTD=YEAR: 1999
EXTT0=
EXTT1=
EXTT2=
EXTT3=
EXTT4=
EXTT5=
EXTT6=
EXTT7=
EXTT8=
EXTT9=
PLAYORDER=
